<mxfile host="app.diagrams.net" modified="2024-02-05T04:57:30.275Z" agent="Mozilla/5.0 (Windows NT 10.0; Win64; x64) AppleWebKit/537.36 (KHTML, like Gecko) Chrome/121.0.0.0 Safari/537.36 Edg/121.0.0.0" etag="x0jCG_rKWanzcKdGDVN5" version="23.0.2" type="device">
  <diagram name="Page-1" id="T1WyHNRkKmHr8BE0JCqU">
    <mxGraphModel dx="1144" dy="746" grid="1" gridSize="10" guides="1" tooltips="1" connect="1" arrows="1" fold="1" page="1" pageScale="1" pageWidth="827" pageHeight="1169" math="0" shadow="0">
      <root>
        <mxCell id="0" />
        <mxCell id="1" parent="0" />
        <mxCell id="ybQS04IvCk9VFile2A1y-58" value="" style="group" vertex="1" connectable="0" parent="1">
          <mxGeometry x="28" y="150" width="822" height="480" as="geometry" />
        </mxCell>
        <mxCell id="ybQS04IvCk9VFile2A1y-20" value="" style="shape=cube;whiteSpace=wrap;html=1;boundedLbl=1;backgroundOutline=1;darkOpacity=0.05;darkOpacity2=0.1;flipH=1;flipV=0;size=140;fillColor=#f5f5f5;strokeColor=#666666;fontColor=#333333;fillStyle=hatch;strokeWidth=2;" vertex="1" parent="ybQS04IvCk9VFile2A1y-58">
          <mxGeometry x="22.09012001239981" width="140.57349098799875" height="423.5294117647059" as="geometry" />
        </mxCell>
        <mxCell id="ybQS04IvCk9VFile2A1y-1" value="" style="shape=cube;whiteSpace=wrap;html=1;boundedLbl=1;backgroundOutline=1;darkOpacity=0.05;darkOpacity2=0.1;flipH=1;flipV=0;size=140;fillColor=#ffe6cc;strokeColor=#d79b00;" vertex="1" parent="ybQS04IvCk9VFile2A1y-58">
          <mxGeometry x="52.21301093839955" width="150.61445462999868" height="423.5294117647059" as="geometry" />
        </mxCell>
        <mxCell id="ybQS04IvCk9VFile2A1y-3" value="" style="shape=cube;whiteSpace=wrap;html=1;boundedLbl=1;backgroundOutline=1;darkOpacity=0.05;darkOpacity2=0.1;flipH=1;flipV=0;size=140;fillColor=#ffe6cc;strokeColor=#d79b00;" vertex="1" parent="ybQS04IvCk9VFile2A1y-58">
          <mxGeometry x="72.2949382223994" width="150.61445462999868" height="423.5294117647059" as="geometry" />
        </mxCell>
        <mxCell id="ybQS04IvCk9VFile2A1y-4" value="" style="shape=cube;whiteSpace=wrap;html=1;boundedLbl=1;backgroundOutline=1;darkOpacity=0.05;darkOpacity2=0.1;flipH=1;flipV=0;size=100;fillColor=#f8cecc;strokeColor=#b85450;" vertex="1" parent="ybQS04IvCk9VFile2A1y-58">
          <mxGeometry x="112.45879279039903" y="169.41176470588238" width="110.45060006199905" height="272.94117647058823" as="geometry" />
        </mxCell>
        <mxCell id="ybQS04IvCk9VFile2A1y-5" value="" style="shape=cube;whiteSpace=wrap;html=1;boundedLbl=1;backgroundOutline=1;darkOpacity=0.05;darkOpacity2=0.1;flipH=1;flipV=0;size=100;fillColor=#ffe6cc;strokeColor=#d79b00;" vertex="1" parent="ybQS04IvCk9VFile2A1y-58">
          <mxGeometry x="132.54072007439885" y="169.41176470588238" width="120.49156370399895" height="272.94117647058823" as="geometry" />
        </mxCell>
        <mxCell id="ybQS04IvCk9VFile2A1y-7" value="" style="shape=cube;whiteSpace=wrap;html=1;boundedLbl=1;backgroundOutline=1;darkOpacity=0.05;darkOpacity2=0.1;flipH=1;flipV=0;size=100;fillColor=#ffe6cc;strokeColor=#d79b00;" vertex="1" parent="ybQS04IvCk9VFile2A1y-58">
          <mxGeometry x="162.66361100039862" y="169.41176470588238" width="120.49156370399895" height="272.94117647058823" as="geometry" />
        </mxCell>
        <mxCell id="ybQS04IvCk9VFile2A1y-10" value="" style="shape=cube;whiteSpace=wrap;html=1;boundedLbl=1;backgroundOutline=1;darkOpacity=0.05;darkOpacity2=0.1;flipH=1;flipV=0;size=60;fillColor=#f8cecc;strokeColor=#b85450;" vertex="1" parent="ybQS04IvCk9VFile2A1y-58">
          <mxGeometry x="212.86842921039815" y="282.35294117647067" width="90.36867277799924" height="178.82352941176475" as="geometry" />
        </mxCell>
        <mxCell id="ybQS04IvCk9VFile2A1y-11" value="" style="shape=cube;whiteSpace=wrap;html=1;boundedLbl=1;backgroundOutline=1;darkOpacity=0.05;darkOpacity2=0.1;flipH=1;flipV=0;size=60;fillColor=#ffe6cc;strokeColor=#d79b00;" vertex="1" parent="ybQS04IvCk9VFile2A1y-58">
          <mxGeometry x="253.03228377839775" y="282.35294117647067" width="100.40963641999915" height="178.82352941176475" as="geometry" />
        </mxCell>
        <mxCell id="ybQS04IvCk9VFile2A1y-12" value="" style="shape=cube;whiteSpace=wrap;html=1;boundedLbl=1;backgroundOutline=1;darkOpacity=0.05;darkOpacity2=0.1;flipH=1;flipV=0;size=60;fillColor=#ffe6cc;strokeColor=#d79b00;" vertex="1" parent="ybQS04IvCk9VFile2A1y-58">
          <mxGeometry x="303.23710198839734" y="282.35294117647067" width="100.40963641999915" height="178.82352941176475" as="geometry" />
        </mxCell>
        <mxCell id="ybQS04IvCk9VFile2A1y-13" value="" style="shape=cube;whiteSpace=wrap;html=1;boundedLbl=1;backgroundOutline=1;darkOpacity=0.05;darkOpacity2=0.1;flipH=1;flipV=0;size=100;fillColor=#ffe6cc;strokeColor=#d79b00;fillStyle=hatch;strokeWidth=2;" vertex="1" parent="ybQS04IvCk9VFile2A1y-58">
          <mxGeometry x="367.49926929719686" y="169.41176470588238" width="116.475178247199" height="272.94117647058823" as="geometry" />
        </mxCell>
        <mxCell id="ybQS04IvCk9VFile2A1y-14" value="" style="shape=cube;whiteSpace=wrap;html=1;boundedLbl=1;backgroundOutline=1;darkOpacity=0.05;darkOpacity2=0.1;flipH=1;flipV=0;size=100;fillColor=#dae8fc;strokeColor=#6c8ebf;gradientColor=none;fillStyle=solid;strokeWidth=1;" vertex="1" parent="ybQS04IvCk9VFile2A1y-58">
          <mxGeometry x="383.56481112439667" y="169.41176470588238" width="120.49156370399895" height="272.94117647058823" as="geometry" />
        </mxCell>
        <mxCell id="ybQS04IvCk9VFile2A1y-15" value="" style="shape=cube;whiteSpace=wrap;html=1;boundedLbl=1;backgroundOutline=1;darkOpacity=0.05;darkOpacity2=0.1;flipH=1;flipV=0;size=100;fillColor=#ffe6cc;strokeColor=#d79b00;" vertex="1" parent="ybQS04IvCk9VFile2A1y-58">
          <mxGeometry x="413.6877020503964" y="169.41176470588238" width="120.49156370399895" height="272.94117647058823" as="geometry" />
        </mxCell>
        <mxCell id="ybQS04IvCk9VFile2A1y-16" value="" style="shape=cube;whiteSpace=wrap;html=1;boundedLbl=1;backgroundOutline=1;darkOpacity=0.05;darkOpacity2=0.1;flipH=1;flipV=0;size=140;fillColor=#ffe6cc;strokeColor=#d79b00;fillStyle=hatch;strokeWidth=2;" vertex="1" parent="ybQS04IvCk9VFile2A1y-58">
          <mxGeometry x="463.89252026039605" width="150.61445462999868" height="423.5294117647059" as="geometry" />
        </mxCell>
        <mxCell id="ybQS04IvCk9VFile2A1y-17" value="" style="shape=cube;whiteSpace=wrap;html=1;boundedLbl=1;backgroundOutline=1;darkOpacity=0.05;darkOpacity2=0.1;flipH=1;flipV=0;size=140;fillColor=#dae8fc;strokeColor=#6c8ebf;" vertex="1" parent="ybQS04IvCk9VFile2A1y-58">
          <mxGeometry x="473.9334839023959" width="150.61445462999868" height="423.5294117647059" as="geometry" />
        </mxCell>
        <mxCell id="ybQS04IvCk9VFile2A1y-18" value="" style="shape=cube;whiteSpace=wrap;html=1;boundedLbl=1;backgroundOutline=1;darkOpacity=0.05;darkOpacity2=0.1;flipH=1;flipV=0;size=140;fillColor=#ffe6cc;strokeColor=#d79b00;" vertex="1" parent="ybQS04IvCk9VFile2A1y-58">
          <mxGeometry x="494.01541118639574" width="150.61445462999868" height="423.5294117647059" as="geometry" />
        </mxCell>
        <mxCell id="ybQS04IvCk9VFile2A1y-19" value="" style="shape=cube;whiteSpace=wrap;html=1;boundedLbl=1;backgroundOutline=1;darkOpacity=0.05;darkOpacity2=0.1;flipH=1;flipV=0;size=140;fillColor=#f5f5f5;strokeColor=#666666;fontColor=#333333;" vertex="1" parent="ybQS04IvCk9VFile2A1y-58">
          <mxGeometry x="534.1792657543954" width="150.61445462999868" height="423.5294117647059" as="geometry" />
        </mxCell>
        <mxCell id="ybQS04IvCk9VFile2A1y-22" value="" style="edgeStyle=orthogonalEdgeStyle;html=1;endArrow=block;elbow=vertical;startArrow=none;endFill=1;strokeColor=#545B64;rounded=0;strokeWidth=5;entryX=0.983;entryY=0.378;entryDx=0;entryDy=0;entryPerimeter=0;" edge="1" parent="ybQS04IvCk9VFile2A1y-58">
          <mxGeometry width="100" relative="1" as="geometry">
            <mxPoint x="165.12364709268857" y="160" as="sourcePoint" />
            <mxPoint x="463.892520260396" y="160.09411764705882" as="targetPoint" />
          </mxGeometry>
        </mxCell>
        <mxCell id="ybQS04IvCk9VFile2A1y-23" value="" style="edgeStyle=orthogonalEdgeStyle;html=1;endArrow=block;elbow=vertical;startArrow=none;endFill=1;strokeColor=#545B64;rounded=0;strokeWidth=5;" edge="1" parent="ybQS04IvCk9VFile2A1y-58">
          <mxGeometry width="100" relative="1" as="geometry">
            <mxPoint x="257.04866923519774" y="272.94117647058823" as="sourcePoint" />
            <mxPoint x="367.49926929719686" y="272.94117647058823" as="targetPoint" />
          </mxGeometry>
        </mxCell>
        <mxCell id="ybQS04IvCk9VFile2A1y-26" value="&lt;font style=&quot;font-size: 11px;&quot;&gt;64&lt;/font&gt;" style="text;html=1;strokeColor=none;fillColor=none;align=center;verticalAlign=middle;whiteSpace=wrap;rounded=0;" vertex="1" parent="ybQS04IvCk9VFile2A1y-58">
          <mxGeometry x="132.54072007439885" y="442.3529411764707" width="20.081927283999825" height="18.823529411764707" as="geometry" />
        </mxCell>
        <mxCell id="ybQS04IvCk9VFile2A1y-28" value="&lt;font style=&quot;font-size: 11px;&quot;&gt;64&lt;/font&gt;" style="text;html=1;strokeColor=none;fillColor=none;align=center;verticalAlign=middle;whiteSpace=wrap;rounded=0;" vertex="1" parent="ybQS04IvCk9VFile2A1y-58">
          <mxGeometry x="162.66361100039862" y="442.3529411764707" width="20.081927283999825" height="18.823529411764707" as="geometry" />
        </mxCell>
        <mxCell id="ybQS04IvCk9VFile2A1y-29" value="&lt;font style=&quot;font-size: 11px;&quot;&gt;32&lt;/font&gt;" style="text;html=1;strokeColor=none;fillColor=none;align=center;verticalAlign=middle;whiteSpace=wrap;rounded=0;" vertex="1" parent="ybQS04IvCk9VFile2A1y-58">
          <mxGeometry x="46.18843275319959" y="423.52941176470597" width="20.081927283999825" height="18.823529411764707" as="geometry" />
        </mxCell>
        <mxCell id="ybQS04IvCk9VFile2A1y-30" value="&lt;font style=&quot;font-size: 11px;&quot;&gt;32&lt;/font&gt;" style="text;html=1;strokeColor=none;fillColor=none;align=center;verticalAlign=middle;whiteSpace=wrap;rounded=0;" vertex="1" parent="ybQS04IvCk9VFile2A1y-58">
          <mxGeometry x="65.26626367299943" y="423.52941176470597" width="20.081927283999825" height="18.823529411764707" as="geometry" />
        </mxCell>
        <mxCell id="ybQS04IvCk9VFile2A1y-31" value="&lt;font style=&quot;font-size: 11px;&quot;&gt;128&lt;/font&gt;" style="text;html=1;strokeColor=none;fillColor=none;align=center;verticalAlign=middle;whiteSpace=wrap;rounded=0;" vertex="1" parent="ybQS04IvCk9VFile2A1y-58">
          <mxGeometry x="263.0732474203977" y="461.17647058823536" width="20.081927283999825" height="18.823529411764707" as="geometry" />
        </mxCell>
        <mxCell id="ybQS04IvCk9VFile2A1y-32" value="&lt;font style=&quot;font-size: 11px;&quot;&gt;128&lt;/font&gt;" style="text;html=1;strokeColor=none;fillColor=none;align=center;verticalAlign=middle;whiteSpace=wrap;rounded=0;" vertex="1" parent="ybQS04IvCk9VFile2A1y-58">
          <mxGeometry x="313.27806563039735" y="461.17647058823536" width="20.081927283999825" height="18.823529411764707" as="geometry" />
        </mxCell>
        <mxCell id="ybQS04IvCk9VFile2A1y-33" value="&lt;font style=&quot;font-size: 11px;&quot;&gt;64&lt;/font&gt;" style="text;html=1;strokeColor=none;fillColor=none;align=center;verticalAlign=middle;whiteSpace=wrap;rounded=0;" vertex="1" parent="ybQS04IvCk9VFile2A1y-58">
          <mxGeometry x="413.6877020503964" y="442.3529411764707" width="20.081927283999825" height="18.823529411764707" as="geometry" />
        </mxCell>
        <mxCell id="ybQS04IvCk9VFile2A1y-34" value="&lt;font style=&quot;font-size: 11px;&quot;&gt;32&lt;/font&gt;" style="text;html=1;strokeColor=none;fillColor=none;align=center;verticalAlign=middle;whiteSpace=wrap;rounded=0;" vertex="1" parent="ybQS04IvCk9VFile2A1y-58">
          <mxGeometry x="487.9908330011959" y="423.52941176470597" width="20.081927283999825" height="18.823529411764707" as="geometry" />
        </mxCell>
        <mxCell id="ybQS04IvCk9VFile2A1y-35" value="&lt;font style=&quot;font-size: 11px;&quot;&gt;64&lt;/font&gt;" style="text;html=1;strokeColor=none;fillColor=none;align=center;verticalAlign=middle;whiteSpace=wrap;rounded=0;" vertex="1" parent="ybQS04IvCk9VFile2A1y-58">
          <mxGeometry x="363.4828838403968" y="442.3529411764707" width="20.081927283999825" height="18.823529411764707" as="geometry" />
        </mxCell>
        <mxCell id="ybQS04IvCk9VFile2A1y-36" value="&lt;font style=&quot;font-size: 11px;&quot;&gt;64&lt;/font&gt;" style="text;html=1;strokeColor=none;fillColor=none;align=center;verticalAlign=middle;whiteSpace=wrap;rounded=0;" vertex="1" parent="ybQS04IvCk9VFile2A1y-58">
          <mxGeometry x="383.56481112439667" y="442.3529411764707" width="20.081927283999825" height="18.823529411764707" as="geometry" />
        </mxCell>
        <mxCell id="ybQS04IvCk9VFile2A1y-37" value="&lt;font style=&quot;font-size: 11px;&quot;&gt;C&lt;/font&gt;" style="text;html=1;strokeColor=none;fillColor=none;align=center;verticalAlign=middle;whiteSpace=wrap;rounded=0;" vertex="1" parent="ybQS04IvCk9VFile2A1y-58">
          <mxGeometry x="529.1587839333954" y="423.52941176470597" width="20.081927283999825" height="18.823529411764707" as="geometry" />
        </mxCell>
        <mxCell id="ybQS04IvCk9VFile2A1y-39" value="&lt;font style=&quot;font-size: 11px;&quot;&gt;128&lt;/font&gt;" style="text;html=1;strokeColor=none;fillColor=none;align=center;verticalAlign=middle;whiteSpace=wrap;rounded=0;" vertex="1" parent="ybQS04IvCk9VFile2A1y-58">
          <mxGeometry x="684.793720384394" y="178.82352941176478" width="20.081927283999825" height="18.823529411764707" as="geometry" />
        </mxCell>
        <mxCell id="ybQS04IvCk9VFile2A1y-40" value="&lt;font style=&quot;font-size: 11px;&quot;&gt;128&lt;/font&gt;" style="text;html=1;strokeColor=none;fillColor=none;align=center;verticalAlign=middle;whiteSpace=wrap;rounded=0;" vertex="1" parent="ybQS04IvCk9VFile2A1y-58">
          <mxGeometry y="254.11764705882362" width="20.081927283999825" height="18.823529411764707" as="geometry" />
        </mxCell>
        <mxCell id="ybQS04IvCk9VFile2A1y-42" value="&lt;span style=&quot;font-size: 11px;&quot;&gt;64&lt;/span&gt;" style="text;html=1;strokeColor=none;fillColor=none;align=center;verticalAlign=middle;whiteSpace=wrap;rounded=0;" vertex="1" parent="ybQS04IvCk9VFile2A1y-58">
          <mxGeometry x="182.7455382843984" y="338.82352941176475" width="20.081927283999825" height="18.823529411764707" as="geometry" />
        </mxCell>
        <mxCell id="ybQS04IvCk9VFile2A1y-43" value="&lt;span style=&quot;font-size: 11px;&quot;&gt;32&lt;br&gt;&lt;/span&gt;" style="text;html=1;strokeColor=none;fillColor=none;align=center;verticalAlign=middle;whiteSpace=wrap;rounded=0;" vertex="1" parent="ybQS04IvCk9VFile2A1y-58">
          <mxGeometry x="343.4009565563971" y="390.58823529411774" width="20.081927283999825" height="18.823529411764707" as="geometry" />
        </mxCell>
        <mxCell id="ybQS04IvCk9VFile2A1y-44" value="" style="shape=cube;whiteSpace=wrap;html=1;boundedLbl=1;backgroundOutline=1;darkOpacity=0.05;darkOpacity2=0.1;flipH=1;flipV=0;size=10;fillColor=#ffe6cc;strokeColor=#d79b00;" vertex="1" parent="ybQS04IvCk9VFile2A1y-58">
          <mxGeometry x="704.8756476683939" y="306.3829787234044" width="31.943005181347157" height="30.638297872340434" as="geometry" />
        </mxCell>
        <mxCell id="ybQS04IvCk9VFile2A1y-45" value="" style="shape=cube;whiteSpace=wrap;html=1;boundedLbl=1;backgroundOutline=1;darkOpacity=0.05;darkOpacity2=0.1;flipH=1;flipV=0;size=10;fillColor=#f8cecc;strokeColor=#b85450;" vertex="1" parent="ybQS04IvCk9VFile2A1y-58">
          <mxGeometry x="704.8756476683939" y="342.12765957446817" width="31.943005181347157" height="30.638297872340434" as="geometry" />
        </mxCell>
        <mxCell id="ybQS04IvCk9VFile2A1y-46" value="" style="shape=cube;whiteSpace=wrap;html=1;boundedLbl=1;backgroundOutline=1;darkOpacity=0.05;darkOpacity2=0.1;flipH=1;flipV=0;size=10;fillColor=#dae8fc;strokeColor=#6c8ebf;" vertex="1" parent="ybQS04IvCk9VFile2A1y-58">
          <mxGeometry x="704.8756476683939" y="377.87234042553206" width="31.943005181347157" height="30.638297872340434" as="geometry" />
        </mxCell>
        <mxCell id="ybQS04IvCk9VFile2A1y-47" value="" style="shape=cube;whiteSpace=wrap;html=1;boundedLbl=1;backgroundOutline=1;darkOpacity=0.05;darkOpacity2=0.1;flipH=1;flipV=0;size=10;fillColor=#d5e8d4;strokeColor=#82b366;fillStyle=hatch;strokeWidth=2;" vertex="1" parent="ybQS04IvCk9VFile2A1y-58">
          <mxGeometry x="704.8756476683939" y="413.61702127659584" width="31.943005181347157" height="30.638297872340434" as="geometry" />
        </mxCell>
        <mxCell id="ybQS04IvCk9VFile2A1y-48" value="" style="edgeStyle=orthogonalEdgeStyle;html=1;endArrow=block;elbow=vertical;startArrow=none;endFill=1;strokeColor=#545B64;rounded=0;strokeWidth=5;" edge="1" parent="ybQS04IvCk9VFile2A1y-58">
          <mxGeometry width="100" relative="1" as="geometry">
            <mxPoint x="704.8756476683939" y="464.68085106382995" as="sourcePoint" />
            <mxPoint x="736.8186528497409" y="464.68085106382995" as="targetPoint" />
          </mxGeometry>
        </mxCell>
        <mxCell id="ybQS04IvCk9VFile2A1y-49" value="&lt;font style=&quot;font-size: 11px;&quot;&gt;Convolution&lt;/font&gt;" style="text;html=1;strokeColor=none;fillColor=none;align=center;verticalAlign=middle;whiteSpace=wrap;rounded=0;" vertex="1" parent="ybQS04IvCk9VFile2A1y-58">
          <mxGeometry x="747.4663212435235" y="307.40425531914894" width="63.886010362694314" height="20.425531914893618" as="geometry" />
        </mxCell>
        <mxCell id="ybQS04IvCk9VFile2A1y-50" value="&lt;font style=&quot;font-size: 11px;&quot;&gt;Max Pooling&lt;/font&gt;" style="text;html=1;strokeColor=none;fillColor=none;align=center;verticalAlign=middle;whiteSpace=wrap;rounded=0;" vertex="1" parent="ybQS04IvCk9VFile2A1y-58">
          <mxGeometry x="747.4663212435235" y="345.1914893617022" width="74.53367875647672" height="20.425531914893618" as="geometry" />
        </mxCell>
        <mxCell id="ybQS04IvCk9VFile2A1y-51" value="&lt;font style=&quot;font-size: 11px;&quot;&gt;Transpose&lt;br&gt;Convolution&lt;br&gt;&lt;/font&gt;" style="text;html=1;strokeColor=none;fillColor=none;align=center;verticalAlign=middle;whiteSpace=wrap;rounded=0;" vertex="1" parent="ybQS04IvCk9VFile2A1y-58">
          <mxGeometry x="747.4663212435235" y="378.8936170212766" width="74.53367875647672" height="20.425531914893618" as="geometry" />
        </mxCell>
        <mxCell id="ybQS04IvCk9VFile2A1y-52" value="&lt;font style=&quot;font-size: 11px;&quot;&gt;Concatenation&lt;br&gt;&lt;/font&gt;" style="text;html=1;strokeColor=none;fillColor=none;align=center;verticalAlign=middle;whiteSpace=wrap;rounded=0;" vertex="1" parent="ybQS04IvCk9VFile2A1y-58">
          <mxGeometry x="747.4663212435235" y="417.7021276595746" width="74.53367875647672" height="20.425531914893618" as="geometry" />
        </mxCell>
        <mxCell id="ybQS04IvCk9VFile2A1y-53" value="&lt;font style=&quot;font-size: 11px;&quot;&gt;Skip Connection&lt;br&gt;&lt;/font&gt;" style="text;html=1;strokeColor=none;fillColor=none;align=center;verticalAlign=middle;whiteSpace=wrap;rounded=0;" vertex="1" parent="ybQS04IvCk9VFile2A1y-58">
          <mxGeometry x="747.4663212435235" y="451.404255319149" width="74.53367875647672" height="20.425531914893618" as="geometry" />
        </mxCell>
      </root>
    </mxGraphModel>
  </diagram>
</mxfile>
